<svg width="205" height="145" viewBox="0 0 205 145" fill="none" xmlns="http://www.w3.org/2000/svg">
<path d="M103.708 5.11133L102.5 3.46812L101.292 5.11133L86.1826 25.6567L59.2466 12.3862L57.0848 11.3211L57.0837 13.731L57.0726 36.4471L24.8573 33.6612L21.5608 33.3761L23.5189 36.0433L38.0569 55.8457L8.29642 63.9161L4.46863 64.9541L8.0253 66.7089L33.9698 79.51L13.1991 96.2684L10.3001 98.6074L14.011 98.9302L45.9378 101.707L38.4167 123.536L37.4948 126.212L40.2267 125.472L70.7544 117.211L78.4669 139.529L79.164 141.546L80.8258 140.207L102.5 122.744L124.174 140.207L125.836 141.546L126.533 139.529L134.246 117.211L164.773 125.472L167.505 126.212L166.583 123.536L159.062 101.707L190.989 98.9302L194.7 98.6074L191.801 96.2684L171.03 79.51L196.975 66.7089L200.531 64.9541L196.704 63.9161L166.943 55.8457L181.481 36.0433L183.439 33.3761L180.143 33.6612L147.927 36.4471L147.916 13.731L147.915 11.3211L145.753 12.3862L118.817 25.6567L103.708 5.11133Z" fill="#FF454D" stroke="#FCD038" stroke-width="3"/>
<path d="M62.9402 58.1167L60.0037 63.5759C59.7212 64.1014 59.3796 64.4989 58.9789 64.7682C58.5847 65.0375 58.1544 65.1722 57.688 65.1722C57.3267 65.1722 56.9522 65.0934 56.5647 64.9357L56.949 63.7237C57.2249 63.8091 57.4548 63.8518 57.6387 63.8518C57.8358 63.8518 58.0132 63.8058 58.1709 63.7138C58.3285 63.6153 58.473 63.4642 58.6044 63.2605L58.6636 63.1817L55.9438 58.1167H57.6486L59.4814 61.8219L61.3734 58.1167H62.9402Z" fill="white"/>
<path d="M66.8739 65.1328C66.171 65.1328 65.5337 64.9817 64.9622 64.6795C64.3972 64.3708 63.9505 63.947 63.622 63.4084C63.3002 62.8631 63.1392 62.2489 63.1392 61.5656C63.1392 60.8824 63.3002 60.2715 63.622 59.7328C63.9505 59.1875 64.3972 58.7638 64.9622 58.4616C65.5337 58.1529 66.1742 57.9985 66.8837 57.9985C67.4815 57.9985 68.0202 58.1036 68.4998 58.3138C68.9859 58.524 69.3932 58.8262 69.7217 59.2204L68.6969 60.1664C68.2304 59.6277 67.6523 59.3584 66.9626 59.3584C66.5356 59.3584 66.1545 59.4536 65.8195 59.6441C65.4845 59.8281 65.2217 60.0875 65.0312 60.4226C64.8472 60.7576 64.7553 61.1386 64.7553 61.5656C64.7553 61.9927 64.8472 62.3737 65.0312 62.7087C65.2217 63.0438 65.4845 63.3065 65.8195 63.497C66.1545 63.681 66.5356 63.7729 66.9626 63.7729C67.6523 63.7729 68.2304 63.5003 68.6969 62.9551L69.7217 63.9011C69.3932 64.3018 68.9859 64.6073 68.4998 64.8175C68.0137 65.0277 67.4717 65.1328 66.8739 65.1328Z" fill="white"/>
<path d="M77.049 58.1167V65.0146H75.4625V59.4175H72.3486V65.0146H70.7621V58.1167H77.049Z" fill="white"/>
<path d="M84.0998 63.7335V65.0146H78.7589V58.1167H83.9717V59.3978H80.3454V60.8956H83.5479V62.1372H80.3454V63.7335H84.0998Z" fill="white"/>
<path d="M85.3892 58.1167H86.9757V62.6102L90.2669 58.1167H91.7647V65.0146H90.1881V60.531L86.8968 65.0146H85.3892V58.1167ZM88.572 57.6733C87.3107 57.6733 86.6735 57.1708 86.6604 56.1656H87.7541C87.7673 56.6452 88.0399 56.885 88.572 56.885C88.8348 56.885 89.0352 56.8259 89.1731 56.7076C89.3111 56.5828 89.3833 56.4021 89.3899 56.1656H90.4837C90.4771 56.6584 90.3162 57.0328 90.0009 57.289C89.6855 57.5452 89.2093 57.6733 88.572 57.6733Z" fill="white"/>
<path d="M101.052 61.4178C101.472 61.5427 101.794 61.7463 102.018 62.0288C102.241 62.3113 102.353 62.6594 102.353 63.0733C102.353 63.6843 102.12 64.1605 101.653 64.5021C101.193 64.8438 100.533 65.0146 99.6725 65.0146H96.2729V58.1167H99.4853C100.287 58.1167 100.911 58.2711 101.358 58.5799C101.804 58.8886 102.028 59.3288 102.028 59.9003C102.028 60.2419 101.942 60.5441 101.771 60.8069C101.601 61.0631 101.361 61.2667 101.052 61.4178ZM97.8594 60.9744H99.3473C99.6955 60.9744 99.9583 60.9054 100.136 60.7675C100.313 60.6229 100.402 60.4127 100.402 60.1368C100.402 59.8675 100.31 59.6605 100.126 59.516C99.9484 59.3715 99.6889 59.2992 99.3473 59.2992H97.8594V60.9744ZM99.6134 63.8321C100.362 63.8321 100.737 63.5365 100.737 62.9452C100.737 62.3737 100.362 62.0879 99.6134 62.0879H97.8594V63.8321H99.6134Z" fill="white"/>
<path d="M106.956 60.3832C107.797 60.3832 108.44 60.5704 108.887 60.9448C109.34 61.3193 109.567 61.8744 109.567 62.6102C109.567 63.3919 109.317 63.9897 108.818 64.4036C108.325 64.8109 107.629 65.0146 106.729 65.0146H103.615V58.1167H105.202V60.3832H106.956ZM106.64 63.8321C107.054 63.8321 107.376 63.7302 107.606 63.5266C107.843 63.3229 107.961 63.0273 107.961 62.6397C107.961 61.9237 107.521 61.5656 106.64 61.5656H105.202V63.8321H106.64ZM110.444 58.1167H112.031V65.0146H110.444V58.1167Z" fill="white"/>
<path d="M113.748 58.1167H115.335V62.6102L118.626 58.1167H120.124V65.0146H118.547V60.531L115.256 65.0146H113.748V58.1167Z" fill="white"/>
<path d="M126.699 59.4175H123.418L123.428 65.0146H121.841V58.1167H126.709L126.699 59.4175Z" fill="white"/>
<path d="M130.668 58.1167C131.279 58.1167 131.808 58.2186 132.255 58.4222C132.708 58.6259 133.056 58.9149 133.299 59.2894C133.542 59.6638 133.664 60.1073 133.664 60.6197C133.664 61.1255 133.542 61.5689 133.299 61.95C133.056 62.3244 132.708 62.6135 132.255 62.8171C131.808 63.0142 131.279 63.1127 130.668 63.1127H129.279V65.0146H127.683V58.1167H130.668ZM130.58 61.812C131.059 61.812 131.424 61.7102 131.673 61.5065C131.923 61.2963 132.048 61.0007 132.048 60.6197C132.048 60.2321 131.923 59.9365 131.673 59.7328C131.424 59.5226 131.059 59.4175 130.58 59.4175H129.279V61.812H130.58Z" fill="white"/>
<path d="M139.041 63.5365H135.839L135.228 65.0146H133.592L136.667 58.1167H138.243L141.327 65.0146H139.652L139.041 63.5365ZM138.539 62.3244L137.445 59.6835L136.351 62.3244H138.539Z" fill="white"/>
<path d="M147.168 59.4175H144.96V65.0146H143.384V59.4175H141.186V58.1167H147.168V59.4175Z" fill="white"/>
<path d="M151.511 60.3832C152.351 60.3832 152.995 60.5704 153.442 60.9448C153.895 61.3193 154.122 61.8744 154.122 62.6102C154.122 63.3919 153.872 63.9897 153.373 64.4036C152.88 64.8109 152.184 65.0146 151.284 65.0146H148.17V58.1167H149.757V60.3832H151.511ZM151.195 63.8321C151.609 63.8321 151.931 63.7302 152.161 63.5266C152.397 63.3229 152.516 63.0273 152.516 62.6397C152.516 61.9237 152.076 61.5656 151.195 61.5656H149.757V63.8321H151.195Z" fill="white"/>
<path d="M86.9175 103.555C87.5285 103.555 88.0573 103.656 88.504 103.86C88.9573 104.064 89.3055 104.353 89.5486 104.727C89.7916 105.102 89.9131 105.545 89.9131 106.058C89.9131 106.563 89.7916 107.007 89.5486 107.388C89.3055 107.762 88.9573 108.051 88.504 108.255C88.0573 108.452 87.5285 108.551 86.9175 108.551H85.5281V110.452H83.9318V103.555H86.9175ZM86.8288 107.25C87.3084 107.25 87.673 107.148 87.9226 106.944C88.1723 106.734 88.2971 106.439 88.2971 106.058C88.2971 105.67 88.1723 105.374 87.9226 105.171C87.673 104.961 87.3084 104.855 86.8288 104.855H85.5281V107.25H86.8288Z" fill="white"/>
<path d="M97.04 103.555L94.1035 109.014C93.821 109.539 93.4794 109.937 93.0787 110.206C92.6845 110.475 92.2542 110.61 91.7878 110.61C91.4265 110.61 91.052 110.531 90.6644 110.374L91.0487 109.162C91.3247 109.247 91.5546 109.29 91.7385 109.29C91.9356 109.29 92.113 109.244 92.2706 109.152C92.4283 109.053 92.5728 108.902 92.7042 108.698L92.7633 108.62L90.0436 103.555H91.7484L93.5812 107.26L95.4732 103.555H97.04Z" fill="white"/>
<path d="M97.7986 103.555H103.366V104.826H99.3851V106.245H101.297C102.131 106.245 102.765 106.419 103.199 106.767C103.639 107.115 103.859 107.618 103.859 108.275C103.859 108.965 103.616 109.5 103.13 109.881C102.643 110.262 101.957 110.452 101.07 110.452H97.7986V103.555ZM100.981 109.27C101.389 109.27 101.701 109.191 101.918 109.034C102.134 108.869 102.243 108.633 102.243 108.324C102.243 107.72 101.822 107.417 100.981 107.417H99.3851V109.27H100.981Z" fill="white"/>
<path d="M111.059 103.555V110.452H109.482V104.855H107.117L107.068 106.294C107.035 107.273 106.956 108.068 106.832 108.679C106.707 109.283 106.497 109.75 106.201 110.078C105.912 110.4 105.505 110.561 104.979 110.561C104.762 110.561 104.499 110.525 104.191 110.452L104.289 109.102C104.375 109.129 104.47 109.142 104.575 109.142C104.956 109.142 105.222 108.919 105.373 108.472C105.524 108.019 105.62 107.312 105.659 106.353L105.757 103.555H111.059Z" fill="white"/>
<path d="M118.123 109.171V110.452H112.782V103.555H117.994V104.836H114.368V106.334H117.571V107.575H114.368V109.171H118.123Z" fill="white"/>
<path d="M119.412 103.555H120.998V108.048L124.29 103.555H125.788V110.452H124.211V105.969L120.92 110.452H119.412V103.555ZM122.595 103.111C121.334 103.111 120.696 102.609 120.683 101.604H121.777C121.79 102.083 122.063 102.323 122.595 102.323C122.858 102.323 123.058 102.264 123.196 102.146C123.334 102.021 123.406 101.84 123.413 101.604H124.507C124.5 102.096 124.339 102.471 124.024 102.727C123.708 102.983 123.232 103.111 122.595 103.111Z" fill="white"/>
<path d="M57.4197 72.1314V70.6314H55.9197H46H44.5V72.1314V76.4015V77.9015H46H49.0985V95.1241V96.6241H50.5985H55.9197H57.4197V95.1241V72.1314ZM61.2792 90.6636L61.2839 90.6736L61.2887 90.6836C62.2498 92.6798 63.5995 94.2647 65.3531 95.3736C67.1016 96.4793 69.0811 97.0183 71.246 97.0183C73.4109 97.0183 75.3905 96.4793 77.139 95.3736C78.8954 94.263 80.2359 92.6745 81.1754 90.6734C82.1444 88.6343 82.6001 86.2703 82.6001 83.6278C82.6001 80.9887 82.1456 78.6346 81.1754 76.6149C80.2376 74.5955 78.8982 72.9943 77.139 71.8819C75.3905 70.7762 73.4109 70.2372 71.246 70.2372C69.0811 70.2372 67.1016 70.7762 65.3531 71.8819C63.5947 72.9938 62.2452 74.5935 61.2856 76.6112L61.2856 76.6112L61.2822 76.6184C60.3353 78.6367 59.892 80.9892 59.892 83.6278C59.892 86.267 60.3356 88.6273 61.2792 90.6636ZM73.2861 88.3744L73.2808 88.3823L73.2757 88.3902C72.7554 89.185 72.1252 89.5183 71.246 89.5183C70.3989 89.5183 69.759 89.1925 69.2114 88.3825C68.6655 87.543 68.2789 86.0388 68.2789 83.6278C68.2789 81.2167 68.6655 79.7125 69.2114 78.873C69.759 78.063 70.3989 77.7372 71.246 77.7372C72.1252 77.7372 72.7554 78.0705 73.2757 78.8653L73.2808 78.8732L73.2861 78.8811C73.8473 79.7152 74.246 81.214 74.246 83.6278C74.246 86.0415 73.8473 87.5403 73.2861 88.3744ZM95.8312 90.6636L95.8358 90.6736L95.8406 90.6836C96.8018 92.6798 98.1514 94.2647 99.905 95.3736C101.653 96.4793 103.633 97.0183 105.798 97.0183C107.963 97.0183 109.942 96.4793 111.691 95.3736C113.447 94.263 114.788 92.6744 115.727 90.6732C116.696 88.6341 117.152 86.2703 117.152 83.6278C117.152 80.9888 116.698 78.6347 115.727 76.615C114.79 74.5956 113.45 72.9943 111.691 71.8819C109.942 70.7762 107.963 70.2372 105.798 70.2372C103.633 70.2372 101.653 70.7762 99.905 71.8819L100.707 73.1497L99.905 71.8819C98.1467 72.9938 96.7971 74.5935 95.8375 76.6112L95.8341 76.6184C94.8873 78.6367 94.4439 80.9892 94.4439 83.6278C94.4439 86.267 94.8875 88.6273 95.8312 90.6636ZM107.838 88.3744L107.833 88.3823L107.828 88.3902C107.307 89.185 106.677 89.5183 105.798 89.5183C104.951 89.5183 104.311 89.1924 103.763 88.3824C103.217 87.5429 102.831 86.0388 102.831 83.6278C102.831 81.2167 103.217 79.7126 103.763 78.8731C104.311 78.0631 104.951 77.7372 105.798 77.7372C106.677 77.7372 107.307 78.0705 107.828 78.8653L107.833 78.8732L107.838 78.8811C108.399 79.7152 108.798 81.214 108.798 83.6278C108.798 86.0415 108.399 87.5403 107.838 88.3744ZM119.603 90.6636L119.607 90.6736L119.612 90.6836C120.573 92.6798 121.923 94.2647 123.677 95.3736C125.425 96.4793 127.405 97.0183 129.569 97.0183C131.734 97.0183 133.714 96.4793 135.462 95.3736C137.219 94.2631 138.559 92.6748 139.499 90.674C140.468 88.6348 140.924 86.2706 140.924 83.6278C140.924 80.9888 140.469 78.6348 139.499 76.6151C138.561 74.5956 137.222 72.9944 135.462 71.8819C133.714 70.7762 131.734 70.2372 129.569 70.2372C127.405 70.2372 125.425 70.7762 123.677 71.8819C121.918 72.9938 120.569 74.5936 119.609 76.6112L119.606 76.6184C118.659 78.6367 118.215 80.9892 118.215 83.6278C118.215 86.267 118.659 88.6273 119.603 90.6636ZM131.61 88.3744L131.604 88.3823L131.599 88.3902C131.079 89.185 130.449 89.5183 129.569 89.5183C128.722 89.5183 128.082 89.1924 127.535 88.3824C126.989 87.5429 126.602 86.0388 126.602 83.6278C126.602 81.2167 126.989 79.7126 127.535 78.8731C128.082 78.0631 128.722 77.7372 129.569 77.7372C130.449 77.7372 131.079 78.0705 131.599 78.8653L131.604 78.8732L131.61 78.8811C132.171 79.7152 132.569 81.214 132.569 83.6278C132.569 86.0415 132.171 87.5403 131.61 88.3744ZM143.374 90.6636L143.379 90.6736L143.384 90.6836C144.345 92.6798 145.694 94.2647 147.448 95.3736C149.197 96.4793 151.176 97.0183 153.341 97.0183C155.506 97.0183 157.485 96.4793 159.234 95.3736C160.99 94.263 162.331 92.6744 163.27 90.6732C164.239 88.6341 164.695 86.2703 164.695 83.6278C164.695 80.9888 164.241 78.6347 163.27 76.615C162.333 74.5956 160.993 72.9943 159.234 71.8819C157.485 70.7762 155.506 70.2372 153.341 70.2372C151.176 70.2372 149.197 70.7762 147.448 71.8819C145.69 72.9938 144.34 74.5936 143.381 76.6112L143.377 76.6184C142.43 78.6367 141.987 80.9892 141.987 83.6278C141.987 86.267 142.431 88.6273 143.374 90.6636ZM155.381 88.3744L155.376 88.3823L155.371 88.3902C154.85 89.185 154.22 89.5183 153.341 89.5183C152.494 89.5183 151.854 89.1924 151.306 88.3824C150.76 87.5429 150.374 86.0388 150.374 83.6278C150.374 81.2167 150.76 79.7126 151.306 78.8731C151.854 78.0631 152.494 77.7372 153.341 77.7372C154.22 77.7372 154.85 78.0705 155.371 78.8653L155.376 78.8732L155.381 78.8811C155.942 79.7152 156.341 81.214 156.341 83.6278C156.341 86.0415 155.942 87.5403 155.381 88.3744Z" fill="white" stroke="#FF454D" stroke-width="3"/>
<path d="M71.1902 48.0438H64.0734L62.7157 51.3285H59.0807L65.9128 36H69.4165L76.2705 51.3285H72.5478L71.1902 48.0438ZM70.0734 45.3504L67.6427 39.4818L65.2121 45.3504H70.0734Z" fill="white"/>
<path d="M84.2375 45.1533H81.785V51.3285H78.2594V36H81.785V42.1971H84.3251L88.3543 36H92.0988L87.0842 43.4015L92.2521 51.3285H88.2229L84.2375 45.1533Z" fill="white"/>
<path d="M109.987 48.438V54.5693H106.724V51.3285H93.9139V36H97.4395V48.438H104.272V36H107.797V48.438H109.987Z" fill="white"/>
<path d="M112.326 36H115.852V45.9854L123.165 36H126.494V51.3285H122.99V41.365L115.676 51.3285H112.326V36Z" fill="white"/>
<path d="M142.551 36V51.3285H139.048V47.2555H135.807L133.092 51.3285H129.347L132.544 46.708C131.508 46.2847 130.712 45.6496 130.157 44.8029C129.602 43.9416 129.325 42.9124 129.325 41.7153C129.325 40.5328 129.595 39.5182 130.135 38.6715C130.675 37.8102 131.442 37.1533 132.435 36.7007C133.427 36.2336 134.595 36 135.938 36H142.551ZM136.026 38.8905C135.019 38.8905 134.245 39.1241 133.705 39.5912C133.179 40.0584 132.916 40.7518 132.916 41.6715C132.916 42.562 133.172 43.2482 133.683 43.7299C134.194 44.2117 134.946 44.4526 135.938 44.4526H139.048V38.8905H136.026Z" fill="white"/>
<path d="M145.625 36H149.698L149.019 46.0073H146.304L145.625 36ZM147.662 51.5036C147.063 51.5036 146.56 51.3139 146.151 50.9343C145.757 50.5401 145.56 50.0657 145.56 49.511C145.56 48.9562 145.757 48.4964 146.151 48.1314C146.545 47.7518 147.049 47.562 147.662 47.562C148.275 47.562 148.779 47.7518 149.173 48.1314C149.567 48.4964 149.764 48.9562 149.764 49.511C149.764 50.0657 149.56 50.5401 149.151 50.9343C148.757 51.3139 148.26 51.5036 147.662 51.5036Z" fill="white"/>
</svg>
