<svg width="369" height="260" viewBox="0 0 369 260" fill="none" xmlns="http://www.w3.org/2000/svg">
<path d="M185.708 5.111L184.5 3.46905L183.292 5.111L154.426 44.3402L103.139 19.0868L100.978 18.0226L100.976 20.4318L100.955 64.2519L39.3725 58.9294L36.075 58.6444L38.0345 61.3119L66.3095 99.8038L8.8945 115.365L5.06443 116.403L8.62347 118.158L58.9058 142.953L18.5281 175.513L15.6271 177.852L19.3397 178.175L80.6307 183.503L66.0408 225.823L65.1183 228.499L67.8505 227.76L126.041 212.022L140.843 254.829L141.54 256.845L143.202 255.507L184.5 222.252L225.798 255.507L227.46 256.845L228.157 254.829L242.959 212.022L301.15 227.76L303.882 228.499L302.959 225.823L288.369 183.503L349.66 178.175L353.373 177.852L350.472 175.513L310.094 142.953L360.377 118.158L363.936 116.403L360.106 115.365L302.691 99.8038L330.966 61.3119L332.925 58.6444L329.628 58.9294L268.045 64.2519L268.024 20.4318L268.022 18.0226L265.861 19.0868L214.574 44.3402L185.708 5.111Z" fill="#FF454D" stroke="#FCD038" stroke-width="3"/>
<path d="M108.424 111.4L103.06 121.372C102.544 122.332 101.92 123.058 101.188 123.55C100.468 124.042 99.6824 124.288 98.8304 124.288C98.1704 124.288 97.4864 124.144 96.7784 123.856L97.4804 121.642C97.9844 121.798 98.4044 121.876 98.7404 121.876C99.1004 121.876 99.4244 121.792 99.7124 121.624C100 121.444 100.264 121.168 100.504 120.796L100.612 120.652L95.6444 111.4H98.7584L102.106 118.168L105.562 111.4H108.424ZM115.61 124.216C114.326 124.216 113.162 123.94 112.118 123.388C111.086 122.824 110.27 122.05 109.67 121.066C109.082 120.07 108.788 118.948 108.788 117.7C108.788 116.452 109.082 115.336 109.67 114.352C110.27 113.356 111.086 112.582 112.118 112.03C113.162 111.466 114.332 111.184 115.628 111.184C116.72 111.184 117.704 111.376 118.58 111.76C119.468 112.144 120.212 112.696 120.812 113.416L118.94 115.144C118.088 114.16 117.032 113.668 115.772 113.668C114.992 113.668 114.296 113.842 113.684 114.19C113.072 114.526 112.592 115 112.244 115.612C111.908 116.224 111.74 116.92 111.74 117.7C111.74 118.48 111.908 119.176 112.244 119.788C112.592 120.4 113.072 120.88 113.684 121.228C114.296 121.564 114.992 121.732 115.772 121.732C117.032 121.732 118.088 121.234 118.94 120.238L120.812 121.966C120.212 122.698 119.468 123.256 118.58 123.64C117.692 124.024 116.702 124.216 115.61 124.216ZM134.196 111.4V124H131.298V113.776H125.61V124H122.712V111.4H134.196ZM147.076 121.66V124H137.32V111.4H146.842V113.74H140.218V116.476H146.068V118.744H140.218V121.66H147.076ZM149.431 111.4H152.329V119.608L158.341 111.4H161.077V124H158.197V115.81L152.185 124H149.431V111.4ZM155.245 110.59C152.941 110.59 151.777 109.672 151.753 107.836H153.751C153.775 108.712 154.273 109.15 155.245 109.15C155.725 109.15 156.091 109.042 156.343 108.826C156.595 108.598 156.727 108.268 156.739 107.836H158.737C158.725 108.736 158.431 109.42 157.855 109.888C157.279 110.356 156.409 110.59 155.245 110.59ZM178.042 117.43C178.81 117.658 179.398 118.03 179.806 118.546C180.214 119.062 180.418 119.698 180.418 120.454C180.418 121.57 179.992 122.44 179.14 123.064C178.3 123.688 177.094 124 175.522 124H169.312V111.4H175.18C176.644 111.4 177.784 111.682 178.6 112.246C179.416 112.81 179.824 113.614 179.824 114.658C179.824 115.282 179.668 115.834 179.356 116.314C179.044 116.782 178.606 117.154 178.042 117.43ZM172.21 116.62H174.928C175.564 116.62 176.044 116.494 176.368 116.242C176.692 115.978 176.854 115.594 176.854 115.09C176.854 114.598 176.686 114.22 176.35 113.956C176.026 113.692 175.552 113.56 174.928 113.56H172.21V116.62ZM175.414 121.84C176.782 121.84 177.466 121.3 177.466 120.22C177.466 119.176 176.782 118.654 175.414 118.654H172.21V121.84H175.414ZM188.826 115.54C190.362 115.54 191.538 115.882 192.354 116.566C193.182 117.25 193.596 118.264 193.596 119.608C193.596 121.036 193.14 122.128 192.228 122.884C191.328 123.628 190.056 124 188.412 124H182.724V111.4H185.622V115.54H188.826ZM188.25 121.84C189.006 121.84 189.594 121.654 190.014 121.282C190.446 120.91 190.662 120.37 190.662 119.662C190.662 118.354 189.858 117.7 188.25 117.7H185.622V121.84H188.25ZM195.198 111.4H198.096V124H195.198V111.4ZM201.234 111.4H204.132V119.608L210.144 111.4H212.88V124H210V115.81L203.988 124H201.234V111.4ZM224.891 113.776H218.897L218.915 124H216.017V111.4H224.909L224.891 113.776ZM232.141 111.4C233.257 111.4 234.223 111.586 235.039 111.958C235.867 112.33 236.503 112.858 236.947 113.542C237.391 114.226 237.613 115.036 237.613 115.972C237.613 116.896 237.391 117.706 236.947 118.402C236.503 119.086 235.867 119.614 235.039 119.986C234.223 120.346 233.257 120.526 232.141 120.526H229.603V124H226.687V111.4H232.141ZM231.979 118.15C232.855 118.15 233.521 117.964 233.977 117.592C234.433 117.208 234.661 116.668 234.661 115.972C234.661 115.264 234.433 114.724 233.977 114.352C233.521 113.968 232.855 113.776 231.979 113.776H229.603V118.15H231.979ZM247.436 121.3H241.586L240.47 124H237.482L243.098 111.4H245.978L251.612 124H248.552L247.436 121.3ZM246.518 119.086L244.52 114.262L242.522 119.086H246.518ZM262.28 113.776H258.248V124H255.368V113.776H251.354V111.4H262.28V113.776ZM270.213 115.54C271.749 115.54 272.925 115.882 273.741 116.566C274.569 117.25 274.983 118.264 274.983 119.608C274.983 121.036 274.527 122.128 273.615 122.884C272.715 123.628 271.443 124 269.799 124H264.111V111.4H267.009V115.54H270.213ZM269.637 121.84C270.393 121.84 270.981 121.654 271.401 121.282C271.833 120.91 272.049 120.37 272.049 119.662C272.049 118.354 271.245 117.7 269.637 117.7H267.009V121.84H269.637Z" fill="white"/>
<path d="M152.223 194.4C153.339 194.4 154.305 194.586 155.121 194.958C155.949 195.33 156.585 195.858 157.029 196.542C157.473 197.226 157.695 198.036 157.695 198.972C157.695 199.896 157.473 200.706 157.029 201.402C156.585 202.086 155.949 202.614 155.121 202.986C154.305 203.346 153.339 203.526 152.223 203.526H149.685V207H146.769V194.4H152.223ZM152.061 201.15C152.937 201.15 153.603 200.964 154.059 200.592C154.515 200.208 154.743 199.668 154.743 198.972C154.743 198.264 154.515 197.724 154.059 197.352C153.603 196.968 152.937 196.776 152.061 196.776H149.685V201.15H152.061ZM170.713 194.4L165.349 204.372C164.833 205.332 164.209 206.058 163.477 206.55C162.757 207.042 161.971 207.288 161.119 207.288C160.459 207.288 159.775 207.144 159.067 206.856L159.769 204.642C160.273 204.798 160.693 204.876 161.029 204.876C161.389 204.876 161.713 204.792 162.001 204.624C162.289 204.444 162.553 204.168 162.793 203.796L162.901 203.652L157.933 194.4H161.047L164.395 201.168L167.851 194.4H170.713ZM172.099 194.4H182.269V196.722H174.997V199.314H178.489C180.013 199.314 181.171 199.632 181.963 200.268C182.767 200.904 183.169 201.822 183.169 203.022C183.169 204.282 182.725 205.26 181.837 205.956C180.949 206.652 179.695 207 178.075 207H172.099V194.4ZM177.913 204.84C178.657 204.84 179.227 204.696 179.623 204.408C180.019 204.108 180.217 203.676 180.217 203.112C180.217 202.008 179.449 201.456 177.913 201.456H174.997V204.84H177.913ZM196.321 194.4V207H193.441V196.776H189.121L189.031 199.404C188.971 201.192 188.827 202.644 188.599 203.76C188.371 204.864 187.987 205.716 187.447 206.316C186.919 206.904 186.175 207.198 185.215 207.198C184.819 207.198 184.339 207.132 183.775 207L183.955 204.534C184.111 204.582 184.285 204.606 184.477 204.606C185.173 204.606 185.659 204.198 185.935 203.382C186.211 202.554 186.385 201.264 186.457 199.512L186.637 194.4H196.321ZM209.224 204.66V207H199.468V194.4H208.99V196.74H202.366V199.476H208.216V201.744H202.366V204.66H209.224ZM211.58 194.4H214.478V202.608L220.49 194.4H223.226V207H220.346V198.81L214.334 207H211.58V194.4ZM217.394 193.59C215.09 193.59 213.926 192.672 213.902 190.836H215.9C215.924 191.712 216.422 192.15 217.394 192.15C217.874 192.15 218.24 192.042 218.492 191.826C218.744 191.598 218.876 191.268 218.888 190.836H220.886C220.874 191.736 220.58 192.42 220.004 192.888C219.428 193.356 218.558 193.59 217.394 193.59Z" fill="white"/>
<path d="M95.6005 137V179H85.8805V144.8H77.4805V137H95.6005ZM123.597 179.72C120.117 179.72 117.017 178.86 114.297 177.14C111.577 175.42 109.437 172.94 107.877 169.7C106.357 166.42 105.597 162.52 105.597 158C105.597 153.48 106.357 149.6 107.877 146.36C109.437 143.08 111.577 140.58 114.297 138.86C117.017 137.14 120.117 136.28 123.597 136.28C127.077 136.28 130.177 137.14 132.897 138.86C135.617 140.58 137.737 143.08 139.257 146.36C140.817 149.6 141.597 153.48 141.597 158C141.597 162.52 140.817 166.42 139.257 169.7C137.737 172.94 135.617 175.42 132.897 177.14C130.177 178.86 127.077 179.72 123.597 179.72ZM123.597 171.5C126.157 171.5 128.157 170.4 129.597 168.2C131.077 166 131.817 162.6 131.817 158C131.817 153.4 131.077 150 129.597 147.8C128.157 145.6 126.157 144.5 123.597 144.5C121.077 144.5 119.077 145.6 117.597 147.8C116.157 150 115.437 153.4 115.437 158C115.437 162.6 116.157 166 117.597 168.2C119.077 170.4 121.077 171.5 123.597 171.5ZM186.711 179.72C183.231 179.72 180.131 178.86 177.411 177.14C174.691 175.42 172.551 172.94 170.991 169.7C169.471 166.42 168.711 162.52 168.711 158C168.711 153.48 169.471 149.6 170.991 146.36C172.551 143.08 174.691 140.58 177.411 138.86C180.131 137.14 183.231 136.28 186.711 136.28C190.191 136.28 193.291 137.14 196.011 138.86C198.731 140.58 200.851 143.08 202.371 146.36C203.931 149.6 204.711 153.48 204.711 158C204.711 162.52 203.931 166.42 202.371 169.7C200.851 172.94 198.731 175.42 196.011 177.14C193.291 178.86 190.191 179.72 186.711 179.72ZM186.711 171.5C189.271 171.5 191.271 170.4 192.711 168.2C194.191 166 194.931 162.6 194.931 158C194.931 153.4 194.191 150 192.711 147.8C191.271 145.6 189.271 144.5 186.711 144.5C184.191 144.5 182.191 145.6 180.711 147.8C179.271 150 178.551 153.4 178.551 158C178.551 162.6 179.271 166 180.711 168.2C182.191 170.4 184.191 171.5 186.711 171.5ZM230.134 179.72C226.654 179.72 223.554 178.86 220.834 177.14C218.114 175.42 215.974 172.94 214.414 169.7C212.894 166.42 212.134 162.52 212.134 158C212.134 153.48 212.894 149.6 214.414 146.36C215.974 143.08 218.114 140.58 220.834 138.86C223.554 137.14 226.654 136.28 230.134 136.28C233.614 136.28 236.714 137.14 239.434 138.86C242.154 140.58 244.274 143.08 245.794 146.36C247.354 149.6 248.134 153.48 248.134 158C248.134 162.52 247.354 166.42 245.794 169.7C244.274 172.94 242.154 175.42 239.434 177.14C236.714 178.86 233.614 179.72 230.134 179.72ZM230.134 171.5C232.694 171.5 234.694 170.4 236.134 168.2C237.614 166 238.354 162.6 238.354 158C238.354 153.4 237.614 150 236.134 147.8C234.694 145.6 232.694 144.5 230.134 144.5C227.614 144.5 225.614 145.6 224.134 147.8C222.694 150 221.974 153.4 221.974 158C221.974 162.6 222.694 166 224.134 168.2C225.614 170.4 227.614 171.5 230.134 171.5ZM273.557 179.72C270.077 179.72 266.977 178.86 264.257 177.14C261.537 175.42 259.397 172.94 257.837 169.7C256.317 166.42 255.557 162.52 255.557 158C255.557 153.48 256.317 149.6 257.837 146.36C259.397 143.08 261.537 140.58 264.257 138.86C266.977 137.14 270.077 136.28 273.557 136.28C277.037 136.28 280.137 137.14 282.857 138.86C285.577 140.58 287.697 143.08 289.217 146.36C290.777 149.6 291.557 153.48 291.557 158C291.557 162.52 290.777 166.42 289.217 169.7C287.697 172.94 285.577 175.42 282.857 177.14C280.137 178.86 277.037 179.72 273.557 179.72ZM273.557 171.5C276.117 171.5 278.117 170.4 279.557 168.2C281.037 166 281.777 162.6 281.777 158C281.777 153.4 281.037 150 279.557 147.8C278.117 145.6 276.117 144.5 273.557 144.5C271.037 144.5 269.037 145.6 267.557 147.8C266.117 150 265.397 153.4 265.397 158C265.397 162.6 266.117 166 267.557 168.2C269.037 170.4 271.037 171.5 273.557 171.5Z" fill="white"/>
<path d="M95.6005 137H98.6005V134H95.6005V137ZM95.6005 179V182H98.6005V179H95.6005ZM85.8805 179H82.8805V182H85.8805V179ZM85.8805 144.8H88.8805V141.8H85.8805V144.8ZM77.4805 144.8H74.4805V147.8H77.4805V144.8ZM77.4805 137V134H74.4805V137H77.4805ZM92.6005 137V179H98.6005V137H92.6005ZM95.6005 176H85.8805V182H95.6005V176ZM88.8805 179V144.8H82.8805V179H88.8805ZM85.8805 141.8H77.4805V147.8H85.8805V141.8ZM80.4805 144.8V137H74.4805V144.8H80.4805ZM77.4805 140H95.6005V134H77.4805V140ZM114.297 177.14L115.9 174.604L114.297 177.14ZM107.877 169.7L105.155 170.961L105.164 170.981L105.174 171.001L107.877 169.7ZM107.877 146.36L105.167 145.071L105.164 145.079L105.161 145.086L107.877 146.36ZM114.297 138.86L115.9 141.396L114.297 138.86ZM132.897 138.86L131.293 141.396L132.897 138.86ZM139.257 146.36L136.535 147.621L136.544 147.641L136.554 147.661L139.257 146.36ZM139.257 169.7L136.547 168.411L136.544 168.419L136.541 168.426L139.257 169.7ZM132.897 177.14L131.293 174.604L132.897 177.14ZM129.597 168.2L127.107 166.525L127.097 166.541L127.087 166.557L129.597 168.2ZM129.597 147.8L127.087 149.443L127.097 149.459L127.107 149.475L129.597 147.8ZM117.597 147.8L115.107 146.125L115.097 146.141L115.087 146.157L117.597 147.8ZM117.597 168.2L115.087 169.843L115.097 169.859L115.107 169.875L117.597 168.2ZM123.597 176.72C120.636 176.72 118.101 175.996 115.9 174.604L112.693 179.676C115.932 181.724 119.597 182.72 123.597 182.72V176.72ZM115.9 174.604C113.709 173.219 111.925 171.194 110.58 168.399L105.174 171.001C106.948 174.686 109.444 177.621 112.693 179.676L115.9 174.604ZM110.599 168.439C109.302 165.64 108.597 162.19 108.597 158H102.597C102.597 162.85 103.412 167.2 105.155 170.961L110.599 168.439ZM108.597 158C108.597 153.808 109.302 150.385 110.593 147.634L105.161 145.086C103.411 148.815 102.597 153.152 102.597 158H108.597ZM110.586 147.649C111.935 144.813 113.719 142.775 115.9 141.396L112.693 136.324C109.435 138.385 106.939 141.347 105.167 145.071L110.586 147.649ZM115.9 141.396C118.101 140.004 120.636 139.28 123.597 139.28V133.28C119.597 133.28 115.932 134.276 112.693 136.324L115.9 141.396ZM123.597 139.28C126.557 139.28 129.092 140.004 131.293 141.396L134.5 136.324C131.261 134.276 127.596 133.28 123.597 133.28V139.28ZM131.293 141.396C133.467 142.77 135.226 144.798 136.535 147.621L141.979 145.099C140.247 141.362 137.766 138.39 134.5 136.324L131.293 141.396ZM136.554 147.661C137.875 150.405 138.597 153.818 138.597 158H144.597C144.597 153.142 143.759 148.795 141.96 145.059L136.554 147.661ZM138.597 158C138.597 162.18 137.875 165.62 136.547 168.411L141.966 170.989C143.758 167.22 144.597 162.86 144.597 158H138.597ZM136.541 168.426C135.236 171.208 133.477 173.224 131.293 174.604L134.5 179.676C137.757 177.616 140.238 174.672 141.973 170.974L136.541 168.426ZM131.293 174.604C129.092 175.996 126.557 176.72 123.597 176.72V182.72C127.596 182.72 131.261 181.724 134.5 179.676L131.293 174.604ZM123.597 174.5C127.201 174.5 130.131 172.862 132.107 169.843L127.087 166.557C126.183 167.938 125.112 168.5 123.597 168.5V174.5ZM132.086 169.875C134.064 166.934 134.817 162.809 134.817 158H128.817C128.817 162.391 128.089 165.066 127.107 166.525L132.086 169.875ZM134.817 158C134.817 153.191 134.064 149.066 132.086 146.125L127.107 149.475C128.089 150.934 128.817 153.609 128.817 158H134.817ZM132.107 146.157C130.131 143.138 127.201 141.5 123.597 141.5V147.5C125.112 147.5 126.183 148.062 127.087 149.443L132.107 146.157ZM123.597 141.5C120.017 141.5 117.11 143.148 115.107 146.125L120.086 149.475C121.043 148.052 122.136 147.5 123.597 147.5V141.5ZM115.087 146.157C113.167 149.09 112.437 153.201 112.437 158H118.437C118.437 153.599 119.146 150.91 120.107 149.443L115.087 146.157ZM112.437 158C112.437 162.799 113.167 166.91 115.087 169.843L120.107 166.557C119.146 165.09 118.437 162.401 118.437 158H112.437ZM115.107 169.875C117.11 172.852 120.017 174.5 123.597 174.5V168.5C122.136 168.5 121.043 167.948 120.086 166.525L115.107 169.875ZM177.411 177.14L179.015 174.604L177.411 177.14ZM170.991 169.7L168.27 170.961L168.279 170.981L168.288 171.001L170.991 169.7ZM170.991 146.36L168.282 145.071L168.279 145.079L168.276 145.086L170.991 146.36ZM177.411 138.86L179.015 141.396L177.411 138.86ZM196.011 138.86L194.408 141.396L196.011 138.86ZM202.371 146.36L199.65 147.621L199.659 147.641L199.668 147.661L202.371 146.36ZM202.371 169.7L199.662 168.411L199.659 168.419L199.656 168.426L202.371 169.7ZM196.011 177.14L194.408 174.604L196.011 177.14ZM192.711 168.2L190.222 166.525L190.212 166.541L190.201 166.557L192.711 168.2ZM192.711 147.8L190.201 149.443L190.212 149.459L190.222 149.475L192.711 147.8ZM180.711 147.8L178.222 146.125L178.212 146.141L178.201 146.157L180.711 147.8ZM180.711 168.2L178.201 169.843L178.212 169.859L178.222 169.875L180.711 168.2ZM186.711 176.72C183.751 176.72 181.216 175.996 179.015 174.604L175.808 179.676C179.047 181.724 182.712 182.72 186.711 182.72V176.72ZM179.015 174.604C176.824 173.219 175.04 171.194 173.694 168.399L168.288 171.001C170.063 174.686 172.559 177.621 175.808 179.676L179.015 174.604ZM173.713 168.439C172.416 165.64 171.711 162.19 171.711 158H165.711C165.711 162.85 166.526 167.2 168.27 170.961L173.713 168.439ZM171.711 158C171.711 153.808 172.417 150.385 173.707 147.634L168.276 145.086C166.526 148.815 165.711 153.152 165.711 158H171.711ZM173.701 147.649C175.049 144.813 176.833 142.775 179.015 141.396L175.808 136.324C172.549 138.385 170.054 141.347 168.282 145.071L173.701 147.649ZM179.015 141.396C181.216 140.004 183.751 139.28 186.711 139.28V133.28C182.712 133.28 179.047 134.276 175.808 136.324L179.015 141.396ZM186.711 139.28C189.672 139.28 192.207 140.004 194.408 141.396L197.615 136.324C194.376 134.276 190.711 133.28 186.711 133.28V139.28ZM194.408 141.396C196.582 142.77 198.341 144.798 199.65 147.621L205.093 145.099C203.362 141.362 200.881 138.39 197.615 136.324L194.408 141.396ZM199.668 147.661C200.989 150.405 201.711 153.818 201.711 158H207.711C207.711 153.142 206.874 148.795 205.074 145.059L199.668 147.661ZM201.711 158C201.711 162.18 200.99 165.62 199.662 168.411L205.081 170.989C206.873 167.22 207.711 162.86 207.711 158H201.711ZM199.656 168.426C198.35 171.208 196.591 173.224 194.408 174.604L197.615 179.676C200.872 177.616 203.353 174.672 205.087 170.974L199.656 168.426ZM194.408 174.604C192.207 175.996 189.672 176.72 186.711 176.72V182.72C190.711 182.72 194.376 181.724 197.615 179.676L194.408 174.604ZM186.711 174.5C190.316 174.5 193.245 172.862 195.222 169.843L190.201 166.557C189.298 167.938 188.227 168.5 186.711 168.5V174.5ZM195.201 169.875C197.179 166.934 197.931 162.809 197.931 158H191.931C191.931 162.391 191.204 165.066 190.222 166.525L195.201 169.875ZM197.931 158C197.931 153.191 197.179 149.066 195.201 146.125L190.222 149.475C191.204 150.934 191.931 153.609 191.931 158H197.931ZM195.222 146.157C193.245 143.138 190.316 141.5 186.711 141.5V147.5C188.227 147.5 189.298 148.062 190.201 149.443L195.222 146.157ZM186.711 141.5C183.132 141.5 180.225 143.148 178.222 146.125L183.201 149.475C184.158 148.052 185.251 147.5 186.711 147.5V141.5ZM178.201 146.157C176.282 149.09 175.551 153.201 175.551 158H181.551C181.551 153.599 182.261 150.91 183.222 149.443L178.201 146.157ZM175.551 158C175.551 162.799 176.282 166.91 178.201 169.843L183.222 166.557C182.261 165.09 181.551 162.401 181.551 158H175.551ZM178.222 169.875C180.225 172.852 183.132 174.5 186.711 174.5V168.5C185.251 168.5 184.158 167.948 183.201 166.525L178.222 169.875ZM220.834 177.14L222.438 174.604L220.834 177.14ZM214.414 169.7L211.692 170.961L211.702 170.981L211.711 171.001L214.414 169.7ZM214.414 146.36L211.705 145.071L211.702 145.079L211.698 145.086L214.414 146.36ZM220.834 138.86L222.438 141.396L220.834 138.86ZM239.434 138.86L237.831 141.396L239.434 138.86ZM245.794 146.36L243.072 147.621L243.082 147.641L243.091 147.661L245.794 146.36ZM245.794 169.7L243.085 168.411L243.082 168.419L243.078 168.426L245.794 169.7ZM239.434 177.14L237.831 174.604L239.434 177.14ZM236.134 168.2L233.645 166.525L233.634 166.541L233.624 166.557L236.134 168.2ZM236.134 147.8L233.624 149.443L233.634 149.459L233.645 149.475L236.134 147.8ZM224.134 147.8L221.645 146.125L221.634 146.141L221.624 146.157L224.134 147.8ZM224.134 168.2L221.624 169.843L221.634 169.859L221.645 169.875L224.134 168.2ZM230.134 176.72C227.174 176.72 224.639 175.996 222.438 174.604L219.231 179.676C222.47 181.724 226.135 182.72 230.134 182.72V176.72ZM222.438 174.604C220.247 173.219 218.463 171.194 217.117 168.399L211.711 171.001C213.485 174.686 215.982 177.621 219.231 179.676L222.438 174.604ZM217.136 168.439C215.839 165.64 215.134 162.19 215.134 158H209.134C209.134 162.85 209.949 167.2 211.692 170.961L217.136 168.439ZM215.134 158C215.134 153.808 215.84 150.385 217.13 147.634L211.698 145.086C209.949 148.815 209.134 153.152 209.134 158H215.134ZM217.123 147.649C218.472 144.813 220.256 142.775 222.438 141.396L219.231 136.324C215.972 138.385 213.476 141.347 211.705 145.071L217.123 147.649ZM222.438 141.396C224.639 140.004 227.174 139.28 230.134 139.28V133.28C226.135 133.28 222.47 134.276 219.231 136.324L222.438 141.396ZM230.134 139.28C233.095 139.28 235.63 140.004 237.831 141.396L241.038 136.324C237.799 134.276 234.134 133.28 230.134 133.28V139.28ZM237.831 141.396C240.005 142.77 241.764 144.798 243.072 147.621L248.516 145.099C246.784 141.362 244.304 138.39 241.038 136.324L237.831 141.396ZM243.091 147.661C244.412 150.405 245.134 153.818 245.134 158H251.134C251.134 153.142 250.296 148.795 248.497 145.059L243.091 147.661ZM245.134 158C245.134 162.18 244.413 165.62 243.085 168.411L248.503 170.989C250.296 167.22 251.134 162.86 251.134 158H245.134ZM243.078 168.426C241.773 171.208 240.014 173.224 237.831 174.604L241.038 179.676C244.294 177.616 246.775 174.672 248.51 170.974L243.078 168.426ZM237.831 174.604C235.63 175.996 233.095 176.72 230.134 176.72V182.72C234.134 182.72 237.799 181.724 241.038 179.676L237.831 174.604ZM230.134 174.5C233.739 174.5 236.668 172.862 238.644 169.843L233.624 166.557C232.72 167.938 231.649 168.5 230.134 168.5V174.5ZM238.623 169.875C240.601 166.934 241.354 162.809 241.354 158H235.354C235.354 162.391 234.627 165.066 233.645 166.525L238.623 169.875ZM241.354 158C241.354 153.191 240.601 149.066 238.623 146.125L233.645 149.475C234.627 150.934 235.354 153.609 235.354 158H241.354ZM238.644 146.157C236.668 143.138 233.739 141.5 230.134 141.5V147.5C231.649 147.5 232.72 148.062 233.624 149.443L238.644 146.157ZM230.134 141.5C226.555 141.5 223.648 143.148 221.645 146.125L226.623 149.475C227.581 148.052 228.673 147.5 230.134 147.5V141.5ZM221.624 146.157C219.704 149.09 218.974 153.201 218.974 158H224.974C224.974 153.599 225.684 150.91 226.644 149.443L221.624 146.157ZM218.974 158C218.974 162.799 219.704 166.91 221.624 169.843L226.644 166.557C225.684 165.09 224.974 162.401 224.974 158H218.974ZM221.645 169.875C223.648 172.852 226.555 174.5 230.134 174.5V168.5C228.673 168.5 227.581 167.948 226.623 166.525L221.645 169.875ZM264.257 177.14L265.86 174.604L264.257 177.14ZM257.837 169.7L255.115 170.961L255.124 170.981L255.134 171.001L257.837 169.7ZM257.837 146.36L255.128 145.071L255.124 145.079L255.121 145.086L257.837 146.36ZM264.257 138.86L265.86 141.396L264.257 138.86ZM282.857 138.86L281.253 141.396L282.857 138.86ZM289.217 146.36L286.495 147.621L286.504 147.641L286.514 147.661L289.217 146.36ZM289.217 169.7L286.508 168.411L286.504 168.419L286.501 168.426L289.217 169.7ZM282.857 177.14L281.253 174.604L282.857 177.14ZM279.557 168.2L277.068 166.525L277.057 166.541L277.047 166.557L279.557 168.2ZM279.557 147.8L277.047 149.443L277.057 149.459L277.068 149.475L279.557 147.8ZM267.557 147.8L265.068 146.125L265.057 146.141L265.047 146.157L267.557 147.8ZM267.557 168.2L265.047 169.843L265.057 169.859L265.068 169.875L267.557 168.2ZM273.557 176.72C270.596 176.72 268.061 175.996 265.86 174.604L262.653 179.676C265.892 181.724 269.557 182.72 273.557 182.72V176.72ZM265.86 174.604C263.669 173.219 261.886 171.194 260.54 168.399L255.134 171.001C256.908 174.686 259.404 177.621 262.653 179.676L265.86 174.604ZM260.559 168.439C259.262 165.64 258.557 162.19 258.557 158H252.557C252.557 162.85 253.372 167.2 255.115 170.961L260.559 168.439ZM258.557 158C258.557 153.808 259.262 150.385 260.553 147.634L255.121 145.086C253.371 148.815 252.557 153.152 252.557 158H258.557ZM260.546 147.649C261.895 144.813 263.679 142.775 265.86 141.396L262.653 136.324C259.395 138.385 256.899 141.347 255.128 145.071L260.546 147.649ZM265.86 141.396C268.061 140.004 270.596 139.28 273.557 139.28V133.28C269.557 133.28 265.892 134.276 262.653 136.324L265.86 141.396ZM273.557 139.28C276.517 139.28 279.052 140.004 281.253 141.396L284.46 136.324C281.221 134.276 277.556 133.28 273.557 133.28V139.28ZM281.253 141.396C283.427 142.77 285.187 144.798 286.495 147.621L291.939 145.099C290.207 141.362 287.726 138.39 284.46 136.324L281.253 141.396ZM286.514 147.661C287.835 150.405 288.557 153.818 288.557 158H294.557C294.557 153.142 293.719 148.795 291.92 145.059L286.514 147.661ZM288.557 158C288.557 162.18 287.835 165.62 286.508 168.411L291.926 170.989C293.718 167.22 294.557 162.86 294.557 158H288.557ZM286.501 168.426C285.196 171.208 283.437 173.224 281.253 174.604L284.46 179.676C287.717 177.616 290.198 174.672 291.933 170.974L286.501 168.426ZM281.253 174.604C279.052 175.996 276.517 176.72 273.557 176.72V182.72C277.556 182.72 281.221 181.724 284.46 179.676L281.253 174.604ZM273.557 174.5C277.161 174.5 280.091 172.862 282.067 169.843L277.047 166.557C276.143 167.938 275.072 168.5 273.557 168.5V174.5ZM282.046 169.875C284.024 166.934 284.777 162.809 284.777 158H278.777C278.777 162.391 278.05 165.066 277.068 166.525L282.046 169.875ZM284.777 158C284.777 153.191 284.024 149.066 282.046 146.125L277.068 149.475C278.05 150.934 278.777 153.609 278.777 158H284.777ZM282.067 146.157C280.091 143.138 277.161 141.5 273.557 141.5V147.5C275.072 147.5 276.143 148.062 277.047 149.443L282.067 146.157ZM273.557 141.5C269.978 141.5 267.07 143.148 265.068 146.125L270.046 149.475C271.003 148.052 272.096 147.5 273.557 147.5V141.5ZM265.047 146.157C263.127 149.09 262.397 153.201 262.397 158H268.397C268.397 153.599 269.107 150.91 270.067 149.443L265.047 146.157ZM262.397 158C262.397 162.799 263.127 166.91 265.047 169.843L270.067 166.557C269.107 165.09 268.397 162.401 268.397 158H262.397ZM265.068 169.875C267.07 172.852 269.978 174.5 273.557 174.5V168.5C272.096 168.5 271.003 167.948 270.046 166.525L265.068 169.875Z" fill="#FF454D"/>
<path d="M123.495 93H110.495L108.015 99H101.375L113.855 71H120.255L132.775 99H125.975L123.495 93ZM121.455 88.08L117.015 77.36L112.575 88.08H121.455ZM147.328 87.72H142.848V99H136.408V71H142.848V82.32H147.488L154.848 71H161.688L152.528 84.52L161.968 99H154.608L147.328 87.72ZM194.363 93.72V104.92H188.403V99H165.003V71H171.443V93.72H183.923V71H190.363V93.72H194.363ZM198.636 71H205.076V89.24L218.436 71H224.516V99H218.116V80.8L204.756 99H198.636V71ZM253.848 71V99H247.448V91.56H241.528L236.568 99H229.728L235.568 90.56C233.674 89.7867 232.221 88.6267 231.208 87.08C230.194 85.5067 229.688 83.6267 229.688 81.44C229.688 79.28 230.181 77.4267 231.168 75.88C232.154 74.3067 233.554 73.1067 235.368 72.28C237.181 71.4267 239.314 71 241.768 71H253.848ZM241.928 76.28C240.088 76.28 238.674 76.7067 237.688 77.56C236.728 78.4133 236.248 79.68 236.248 81.36C236.248 82.9867 236.714 84.24 237.648 85.12C238.581 86 239.954 86.44 241.768 86.44H247.448V76.28H241.928ZM259.463 71H266.903L265.663 89.28H260.703L259.463 71ZM263.183 99.32C262.089 99.32 261.169 98.9733 260.423 98.28C259.703 97.56 259.343 96.6933 259.343 95.68C259.343 94.6667 259.703 93.8267 260.423 93.16C261.143 92.4667 262.063 92.12 263.183 92.12C264.303 92.12 265.223 92.4667 265.943 93.16C266.663 93.8267 267.023 94.6667 267.023 95.68C267.023 96.6933 266.649 97.56 265.903 98.28C265.183 98.9733 264.276 99.32 263.183 99.32Z" fill="white"/>
</svg>
