<svg width="109" height="80" viewBox="0 0 109 80" fill="none" xmlns="http://www.w3.org/2000/svg">
<path d="M70.3326 76.6815L41.474 58.6614C40.8888 58.296 40.5333 57.6548 40.5333 56.965V45.4404M70.3326 76.6815V48.5743M70.3326 76.6815L100.588 59.433C101.212 59.0771 101.598 58.4139 101.598 57.6955V38.2912M70.3326 48.5743L65.7165 58.5592C65.2109 59.6528 63.8603 60.0544 62.8393 59.4148L40.5333 45.4404M70.3326 48.5743L76.0497 45.4404M70.3326 48.5743L63.982 44.9508M70.3326 15.1787L101.598 31.4358M70.3326 15.1787V41.8169M70.3326 15.1787L46.3659 29.7932M101.598 31.4358L105 35.6393C106.308 37.2551 104.588 39.5461 102.671 38.7418L101.598 38.2912M101.598 31.4358V38.2912M101.598 31.4358L76.0497 45.4404M31.4469 39.5644L40.5333 45.4404M70.3326 41.8169L76.0497 45.4404M70.3326 41.8169L63.982 44.9508M63.982 44.9508L44.3437 33.5904" stroke="black" stroke-width="4"/>
<path d="M27.9992 19.9896V19.9896C21.6791 21.916 16.2531 26.0332 12.6964 31.6014L8.52808 38.1271L8.33425 38.5289M27.9992 19.9896L23.1395 28.1462C22.1981 29.7263 22.7193 31.7706 24.3024 32.707V32.707C25.0261 33.1351 25.9405 33.0633 26.5883 32.5272C27.8295 31.5002 29.8891 29.796 31.3953 28.5496C31.8595 28.1655 32.584 27.566 32.584 27.566L33.8281 26.5641C34.2777 26.2021 34.7907 25.9266 35.3409 25.7519L35.689 25.6413C37.4301 25.0882 39.2064 26.3877 39.2064 28.2145V28.4167C39.2064 28.6505 39.2761 28.6159 39.1805 28.8292V28.8292C38.3371 30.7107 37.1436 32.7452 35.8627 34.3609C32.8528 38.1576 29.4708 42.4235 29.4708 42.4235M27.9992 19.9896L39.263 3L56.4134 15.283L34.9046 46.5645L29.4708 42.4235M11.8887 50.9841L12.7732 54.0836L6.09419 55.9777L1 38.1271L7.67904 36.233L8.33425 38.5289M11.8887 50.9841L21.1391 48.125C24.4279 47.1085 27.3323 45.121 29.4708 42.4235V42.4235M11.8887 50.9841L8.33425 38.5289" stroke="black" stroke-width="3"/>
</svg>
