<svg width="84" height="85" viewBox="0 0 84 85" fill="none" xmlns="http://www.w3.org/2000/svg">
<path d="M66.5831 60.3737L57.9038 57.7441L54.7879 52.0784C57.595 49.481 59.5439 46.0441 60.2012 42.4593L60.5897 40.3418H63.913C66.9338 40.3418 69.3913 38.1076 69.3913 35.3613V24.9023C69.3913 11.1712 57.1036 0 42 0C26.8577 0 14.6087 11.1392 14.6087 24.9023V35.3613C14.6087 37.5255 16.1355 39.3709 18.2609 40.0563V42.002C18.2609 44.7482 20.7184 46.9824 23.7391 46.9824H25.3428C26.1344 48.5458 27.159 49.9938 28.4059 51.2945C28.6645 51.5648 28.9342 51.8268 29.2105 52.0816L26.0962 57.7441L17.4167 60.3739C7.3248 63.4332 0 73.0919 0 83.3398C0 84.2567 0.817539 85 1.82609 85H82.1739C83.1823 85 84 84.2567 84 83.3398C84 73.0919 76.6754 63.4332 66.5831 60.3737ZM65.7391 35.3613C65.7391 36.2767 64.9199 37.0215 63.913 37.0215H61.1261C61.5903 33.7526 61.8996 30.2741 62.024 26.848C62.0276 26.7514 62.0305 26.6575 62.0338 26.5625H65.7391V35.3613ZM20.087 37.0215C19.0801 37.0215 18.2609 36.2767 18.2609 35.3613V26.5625H21.9675C21.9735 26.7357 21.9799 26.9096 21.987 27.0848C21.9872 27.0908 21.9875 27.0966 21.9877 27.1026C21.9877 27.103 21.9877 27.1035 21.9877 27.104C22.1156 30.4363 22.4209 33.8245 22.8745 37.0213H20.087V37.0215ZM23.7391 43.6621C22.7322 43.6621 21.913 42.9174 21.913 42.002V40.3418H23.4101L23.7987 42.46C23.8728 42.8626 23.9639 43.2637 24.0693 43.6621H23.7391ZM21.9161 23.2422H18.3303C19.2552 12.1157 29.4688 3.32031 42 3.32031C54.4755 3.32031 64.734 12.1145 65.6696 23.2422H62.084C61.9526 14.0736 53.7401 6.64062 43.6345 6.64062H40.3658C30.2605 6.64062 22.0474 14.0736 21.9161 23.2422ZM40.3657 9.96094H43.6343C51.8169 9.96094 58.4395 16.0456 58.4348 23.4763C58.4348 23.9987 58.4302 24.4536 58.4205 24.8675C58.4205 24.8728 58.4204 24.8783 58.4204 24.8838L56.1363 24.5871C49.9312 23.7816 44.0724 21.1183 39.6391 17.0878C39.2965 16.7765 38.8321 16.6016 38.3478 16.6016C33.4437 16.6016 28.7492 18.6329 25.6459 22.0648C26.4107 15.3048 32.6966 9.96094 40.3657 9.96094ZM27.8551 43.6621C26.941 40.8974 25.895 32.7627 25.6638 27.5498L28.1216 24.5705C30.3788 21.8352 33.8905 20.1357 37.6262 19.9406C42.5414 24.1933 48.9002 27.0016 55.6199 27.8739L58.3082 28.2232C58.1285 31.6904 57.7613 35.1697 57.2352 38.3697C57.235 38.3707 57.2349 38.3719 57.2347 38.373C57.0674 39.4018 56.9356 40.0639 56.5988 41.9131C55.6317 47.1866 51.3035 51.9554 45.5899 53.2542C43.2385 53.7879 40.7612 53.7877 38.411 53.2542C34.8434 52.4433 31.5721 50.1991 29.461 46.9824H33.1837C33.9375 48.9147 35.9672 50.3027 38.3478 50.3027H42C45.0267 50.3027 47.4783 48.0741 47.4783 45.3223C47.4783 42.576 45.0207 40.3418 42 40.3418H38.3478C35.9142 40.3418 33.9145 41.7709 33.1805 43.6621H27.8551ZM38.1943 56.614C39.4468 56.8539 40.7237 56.9766 42 56.9766C42.9991 56.9766 43.9983 56.9005 44.9862 56.7531L41.7595 59.8554L38.1943 56.614ZM39.249 62.269L33.457 67.8375C31.8625 65.0627 30.4924 62.1748 29.3686 59.2184L31.5436 55.2636L39.249 62.269ZM52.1468 54.7011L54.631 59.2183C53.5054 62.1797 52.135 65.0685 50.5421 67.84L44.3429 62.2041L52.1468 54.7011ZM36.5217 45.3223C36.5217 44.4057 37.3395 43.6621 38.3478 43.6621H42C43.0069 43.6621 43.8261 44.4069 43.8261 45.3223C43.8261 46.239 43.0082 46.9824 42 46.9824H38.3478C37.3409 46.9824 36.5217 46.2377 36.5217 45.3223ZM3.72522 81.6797C4.4489 73.4554 10.4693 65.9801 18.5717 63.5237L26.2584 61.1949C27.6667 64.7351 29.4113 68.1761 31.456 71.4447C31.4595 71.4503 31.4627 71.4559 31.4662 71.4614C31.4662 71.4616 31.4664 71.4616 31.4664 71.4618C32.9603 73.8506 34.6418 76.1849 36.4648 78.401L38.7112 81.6797H3.72522ZM42 80.1998L39.5235 76.5852C39.4957 76.5447 39.4661 76.5053 39.4347 76.4671C37.9559 74.6738 36.5765 72.7983 35.3202 70.8787L41.8325 64.6176L48.6946 70.8561C47.4299 72.7897 46.0457 74.673 44.5657 76.4668C44.4762 76.5752 44.6031 76.4044 42 80.1998ZM45.2888 81.6797L47.5351 78.4012C49.3661 76.1766 51.0596 73.8235 52.5685 71.4066C52.5776 71.392 52.5862 71.3771 52.5953 71.3625C52.5964 71.3607 52.5975 71.359 52.5986 71.3572C54.6173 68.1199 56.3437 64.7087 57.7416 61.1949L65.4281 63.5237C73.5307 65.9801 79.5511 73.4554 80.2748 81.6797H45.2888Z" fill="black"/>
</svg>
