<svg width="67" height="69" viewBox="0 0 67 69" fill="none" xmlns="http://www.w3.org/2000/svg">
<path fill-rule="evenodd" clip-rule="evenodd" d="M19.2263 0.172668C18.2545 0.383835 16.8625 0.994277 15.963 1.60364C14.9084 2.31818 12.9602 4.28179 12.2713 5.32455C10.0847 8.63445 11.3504 11.4214 15.8426 13.188C16.4313 13.4195 18.2859 13.9975 19.9641 14.4723C24.9174 15.8739 26.3625 16.4297 27.2377 17.2699C27.5619 17.5813 27.6769 17.81 27.6769 18.1438C27.6769 19.4393 28.9937 20.3655 30.15 19.8835C30.5877 19.701 30.6955 19.701 31.1623 19.884C31.8349 20.1476 32.6023 19.9617 33.1362 19.4057C33.4781 19.0496 33.5556 19.0249 33.9282 19.1545C34.2532 19.2675 34.4902 19.2475 35.0412 19.0606C35.7242 18.829 35.7695 18.8303 36.8743 19.1162C37.4973 19.2773 39.6201 20.0062 41.5914 20.7358C46.9466 22.7179 48.1049 23.0325 50.048 23.0325C53.1354 23.0325 54.7324 21.1534 54.5175 17.7736C54.2605 13.732 52.3221 10.2698 49.5552 8.91088C48.0857 8.18905 47.1564 7.9973 45.176 8.00728C42.1816 8.02225 39.1081 8.89524 35.2485 10.8268L33.7675 11.568L33.405 10.9288C31.529 7.62136 30.6235 6.28275 29.021 4.4486C25.9856 0.974185 22.5138 -0.54147 19.2263 0.172668ZM33.2847 1.74725C32.5415 2.03986 31.3721 2.49456 30.6862 2.75764L29.4388 3.23621L30.2064 4.16717C30.6285 4.67918 31.0371 5.09814 31.1143 5.09814C31.1916 5.09814 32.0611 4.78921 33.0466 4.41165L34.8383 3.72515L38.6559 5.27438L42.4734 6.82362L44.371 6.75215C46.7985 6.66059 48.0637 6.8874 49.7704 7.7202C51.1537 8.39523 52.3593 9.40711 53.1568 10.5626C53.4466 10.9826 53.837 11.4042 54.0243 11.4994C54.2115 11.5947 56.4322 12.5081 58.9591 13.5294C61.486 14.5508 63.6009 15.4278 63.659 15.4784C63.7169 15.5291 61.9255 16.2955 59.6779 17.1819L55.5914 18.7932L55.4194 19.6412C55.3248 20.1076 55.1255 20.7643 54.9764 21.1006C54.8028 21.4922 54.7656 21.6878 54.8729 21.6449C58.131 20.3448 64.3826 17.9084 64.4605 17.9084C64.5191 17.9084 64.5659 26.1761 64.5647 36.281L64.5624 54.6536L49.8194 60.4519C41.7108 63.641 34.9925 66.2698 34.8899 66.2938C34.7322 66.3307 34.7037 63.5117 34.7044 47.9549L34.705 29.5725L41.5243 26.89C45.2749 25.4147 48.3162 24.1634 48.283 24.1096C48.2496 24.0558 47.9626 23.9714 47.6451 23.9222C47.3275 23.8729 46.5098 23.6727 45.8279 23.4776L44.588 23.1228L39.0401 25.3069L33.4921 27.4909L28.3211 25.4565C25.477 24.3377 23.1027 23.3751 23.0447 23.3177C22.9867 23.2603 24.0659 22.7023 25.4426 22.0778C26.8194 21.4533 27.9458 20.9121 27.9457 20.875C27.9455 20.8379 27.7678 20.7067 27.5507 20.5834C27.0065 20.2745 26.4522 19.392 26.3639 18.6935C26.2682 17.9373 26.0912 17.7517 25.042 17.3067L24.1723 16.9378L19.9477 18.7137L15.7231 20.4896L10.6532 18.5001C3.70719 15.7743 3.4368 15.6631 3.57233 15.5884C3.638 15.5523 5.52831 14.8306 7.77319 13.985L11.8547 12.4472L11.4091 11.9752C11.164 11.7156 10.8216 11.2909 10.6482 11.0313C10.4748 10.7717 10.3208 10.5417 10.306 10.5201C10.2913 10.4984 8.03359 11.3328 5.28886 12.3742C2.54427 13.4155 0.225746 14.2676 0.136696 14.2676C0.0114323 14.2676 -0.0174852 19.0217 0.00899993 35.2683L0.0431874 56.2692L16.191 62.6344L32.3388 68.9996L33.4874 68.9999L34.636 69L50.7838 62.6353L66.9316 56.2707L66.9658 35.2617L67 14.2528L66.4253 14.0007C64.6204 13.2092 34.9076 1.19007 34.7845 1.20153C34.7028 1.20922 34.0279 1.45477 33.2847 1.74725ZM23.1111 4.18929C25.3903 5.31335 28.2452 8.72493 30.3223 12.8063L30.6424 13.4351L29.9827 13.8575L29.323 14.28L28.5609 13.7935C27.5661 13.1584 25.637 12.3954 23.2852 11.7066C22.2447 11.402 20.6941 10.948 19.8395 10.6977C16.3332 9.671 14.8397 8.94931 14.8397 8.28156C14.8397 7.50863 16.6258 5.46209 18.1536 4.48446C19.2084 3.80957 19.9037 3.60973 21.0626 3.64829C21.9307 3.67715 22.2368 3.75806 23.1111 4.18929ZM47.8441 12.0831C48.9003 12.6018 49.5146 13.2765 50.0959 14.5559C50.8285 16.1684 51.1896 18.9997 50.7129 19.3945C50.4153 19.6409 48.9378 19.4791 47.5407 19.047C46.909 18.8516 44.7737 18.0927 42.7956 17.3605C39.3432 16.0825 37.3865 15.4801 36.0301 15.278C34.9608 15.1185 35.1121 14.9012 36.9076 14.0164C38.8508 13.0588 40.6797 12.3448 42.1141 11.984C43.5696 11.6179 43.777 11.5951 45.4491 11.6179C46.8402 11.6368 46.9981 11.6674 47.8441 12.0831ZM8.02359 20.0354L13.4209 22.1623L13.4552 40.5318C13.474 50.6349 13.4436 58.9028 13.3876 58.9048C13.3316 58.9067 10.8391 57.9511 7.84873 56.781L2.41185 54.6536L2.40982 36.281C2.40874 26.1761 2.45712 17.9084 2.51711 17.9084C2.57711 17.9084 5.05509 18.8655 8.02359 20.0354ZM32.2706 47.9451C32.271 58.0501 32.2256 66.3169 32.1699 66.3159C32.1142 66.315 29.3018 65.1967 25.9202 63.8311L19.7719 61.3481L19.7287 57.7312C19.7049 55.7418 19.7274 47.4958 19.7788 39.4067L19.8722 24.6992L26.071 27.1358L32.2698 29.5725L32.2706 47.9451Z" fill="black"/>
</svg>
