<svg width="61" height="85" viewBox="0 0 61 85" fill="none" xmlns="http://www.w3.org/2000/svg">
<path d="M52.9533 2.86722H49.9966V1.34402C49.9966 0.601699 49.3949 0 48.6526 0C47.9103 0 47.3086 0.601699 47.3086 1.34402V2.86722H44.2622V1.34402C44.2622 0.601699 43.6605 0 42.9181 0C42.1758 0 41.5741 0.601699 41.5741 1.34402V2.86722H38.5277V1.34402C38.5277 0.601699 37.926 0 37.1837 0C36.4414 0 35.8397 0.601699 35.8397 1.34402V2.86722H32.7933V1.34402C32.7933 0.601699 32.1916 0 31.4493 0C30.7069 0 30.1052 0.601699 30.1052 1.34402V2.86722H27.0588V1.34402C27.0588 0.601699 26.4571 0 25.7148 0C24.9725 0 24.3708 0.601699 24.3708 1.34402V2.86722H21.3244V1.34402C21.3244 0.601699 20.7227 0 19.9804 0C19.2381 0 18.6364 0.601699 18.6364 1.34402V2.86722H15.5904V1.34402C15.5904 0.601699 14.9887 0 14.2464 0C13.5041 0 12.9024 0.601699 12.9024 1.34402V2.86722H9.856V1.34402C9.856 0.601699 9.2543 0 8.51199 0C7.76967 0 7.16797 0.601699 7.16797 1.34402V2.86722H4.21124C1.88917 2.86722 0 4.75639 0 7.07846V71.5902C0 73.9123 1.88917 75.8014 4.21124 75.8014H31.4494C32.1917 75.8014 32.7934 75.1997 32.7934 74.4574C32.7934 73.7151 32.1917 73.1134 31.4494 73.1134H4.21124C3.37133 73.1134 2.68803 72.4301 2.68803 71.5902V7.07829C2.68803 6.23839 3.37133 5.55509 4.21124 5.55509H7.16797V7.07829C7.16797 7.82061 7.76967 8.42231 8.51199 8.42231C9.2543 8.42231 9.856 7.82061 9.856 7.07829V5.55509H12.9024V7.07829C12.9024 7.82061 13.5041 8.42231 14.2464 8.42231C14.9887 8.42231 15.5904 7.82061 15.5904 7.07829V5.55509H18.6369V7.07829C18.6369 7.82061 19.2386 8.42231 19.9809 8.42231C20.7232 8.42231 21.3249 7.82061 21.3249 7.07829V5.55509H24.3713V7.07829C24.3713 7.82061 24.973 8.42231 25.7153 8.42231C26.4576 8.42231 27.0593 7.82061 27.0593 7.07829V5.55509H30.1057V7.07829C30.1057 7.82061 30.7074 8.42231 31.4498 8.42231C32.1921 8.42231 32.7938 7.82061 32.7938 7.07829V5.55509H35.8402V7.07829C35.8402 7.82061 36.4419 8.42231 37.1842 8.42231C37.9265 8.42231 38.5282 7.82061 38.5282 7.07829V5.55509H41.5746V7.07829C41.5746 7.82061 42.1763 8.42231 42.9186 8.42231C43.661 8.42231 44.2627 7.82061 44.2627 7.07829V5.55509H47.3091V7.07829C47.3091 7.82061 47.9108 8.42231 48.6531 8.42231C49.3954 8.42231 49.9971 7.82061 49.9971 7.07829V5.55509H52.9538C53.7937 5.55509 54.477 6.23839 54.477 7.07829V50.0865C54.477 50.8288 55.0787 51.4305 55.8211 51.4305C56.5634 51.4305 57.1651 50.8288 57.1651 50.0865V7.07829C57.1646 4.75623 55.2754 2.86722 52.9533 2.86722Z" fill="black"/>
<path d="M50.0862 11.4683H7.07839C6.33607 11.4683 5.73438 12.07 5.73438 12.8123C5.73438 13.5546 6.33607 14.1563 7.07839 14.1563H50.0862C50.8285 14.1563 51.4302 13.5546 51.4302 12.8123C51.4302 12.07 50.8284 11.4683 50.0862 11.4683Z" fill="black"/>
<path d="M57.607 61.5016V54.8907C57.607 48.8933 52.7278 44.0142 46.7304 44.0142C40.733 44.0142 35.8539 48.8933 35.8539 54.8907V61.5016C34.0333 62.1165 32.7183 63.8396 32.7183 65.8652V79.9754C32.7183 82.5148 34.7842 84.5808 37.3236 84.5808H56.1373C58.6766 84.5808 60.7426 82.5148 60.7426 79.9754V65.8652C60.7426 63.8396 59.4276 62.1167 57.607 61.5016ZM38.7935 54.8907C38.7935 50.5142 42.354 46.9537 46.7304 46.9537C51.1069 46.9537 54.6674 50.5142 54.6674 54.8907V61.2599H38.7933V54.8907H38.7935ZM57.803 79.9754C57.803 80.8941 57.0559 81.6412 56.1373 81.6412H37.3236C36.405 81.6412 35.6578 80.8941 35.6578 79.9754V65.8652C35.6578 64.9466 36.405 64.1995 37.3236 64.1995H56.1373C57.0559 64.1995 57.803 64.9466 57.803 65.8652V79.9754Z" fill="black"/>
<path d="M18.5471 25.8042C17.8048 25.8042 17.2031 26.4059 17.2031 27.1482C17.2031 28.7785 15.8767 30.1049 14.2463 30.1049C12.616 30.1049 11.2896 28.7785 11.2896 27.1482C11.2896 25.5178 12.616 24.1914 14.2463 24.1914C14.9886 24.1914 15.5903 23.5897 15.5903 22.8474C15.5903 22.1051 14.9886 21.5034 14.2463 21.5034C11.1338 21.5034 8.60156 24.0357 8.60156 27.1482C8.60156 30.2607 11.1338 32.7929 14.2463 32.7929C17.3588 32.7929 19.8911 30.2607 19.8911 27.1482C19.8911 26.4059 19.2894 25.8042 18.5471 25.8042Z" fill="black"/>
<path d="M18.5471 41.5742C17.8048 41.5742 17.2031 42.1759 17.2031 42.9182C17.2031 44.5486 15.8767 45.8749 14.2463 45.8749C12.616 45.8749 11.2896 44.5486 11.2896 42.9182C11.2896 41.2878 12.616 39.9615 14.2463 39.9615C14.9886 39.9615 15.5903 39.3598 15.5903 38.6175C15.5903 37.8751 14.9886 37.2734 14.2463 37.2734C11.1338 37.2734 8.60156 39.8057 8.60156 42.9182C8.60156 46.0307 11.1338 48.563 14.2463 48.563C17.3588 48.563 19.8911 46.0307 19.8911 42.9182C19.8911 42.176 19.2894 41.5742 18.5471 41.5742Z" fill="black"/>
<path d="M47.219 44.4409H24.2815C23.5392 44.4409 22.9375 45.0426 22.9375 45.7849C22.9375 46.5272 23.5392 47.1289 24.2815 47.1289H47.219C47.9613 47.1289 48.563 46.5272 48.563 45.7849C48.563 45.0426 47.9611 44.4409 47.219 44.4409Z" fill="black"/>
<path d="M41.4845 38.707H24.2815C23.5392 38.707 22.9375 39.3087 22.9375 40.051C22.9375 40.7934 23.5392 41.3951 24.2815 41.3951H41.4847C42.227 41.3951 42.8287 40.7934 42.8287 40.051C42.8287 39.3087 42.2268 38.707 41.4845 38.707Z" fill="black"/>
<path d="M31.4495 60.2109H24.2815C23.5392 60.2109 22.9375 60.8126 22.9375 61.555C22.9375 62.2973 23.5392 62.899 24.2815 62.899H31.4495C32.1918 62.899 32.7935 62.2973 32.7935 61.555C32.7935 60.8126 32.1916 60.2109 31.4495 60.2109Z" fill="black"/>
<path d="M34.3167 54.4766H24.2815C23.5392 54.4766 22.9375 55.0783 22.9375 55.8206C22.9375 56.5629 23.5392 57.1646 24.2815 57.1646H34.3167C35.059 57.1646 35.6607 56.5629 35.6607 55.8206C35.6607 55.0783 35.059 54.4766 34.3167 54.4766Z" fill="black"/>
<path d="M47.219 28.6714H24.2815C23.5392 28.6714 22.9375 29.2731 22.9375 30.0154C22.9375 30.7577 23.5392 31.3594 24.2815 31.3594H47.219C47.9613 31.3594 48.563 30.7577 48.563 30.0154C48.563 29.2731 47.9611 28.6714 47.219 28.6714Z" fill="black"/>
<path d="M41.4845 22.937H24.2815C23.5392 22.937 22.9375 23.5387 22.9375 24.281C22.9375 25.0233 23.5392 25.625 24.2815 25.625H41.4847C42.227 25.625 42.8287 25.0233 42.8287 24.281C42.8287 23.5387 42.2268 22.937 41.4845 22.937Z" fill="black"/>
<path d="M18.5471 57.3432C17.8048 57.3432 17.2031 57.9449 17.2031 58.6872C17.2031 60.3176 15.8767 61.644 14.2463 61.644C12.616 61.644 11.2896 60.3176 11.2896 58.6872C11.2896 57.0569 12.616 55.7305 14.2463 55.7305C14.9886 55.7305 15.5903 55.1288 15.5903 54.3865C15.5903 53.6442 14.9886 53.0425 14.2463 53.0425C11.1338 53.0425 8.60156 55.5747 8.60156 58.6872C8.60156 61.7998 11.1338 64.332 14.2463 64.332C17.3588 64.332 19.8911 61.7998 19.8911 58.6872C19.8911 57.9449 19.2894 57.3432 18.5471 57.3432Z" fill="black"/>
</svg>
