<svg width="78" height="81" viewBox="0 0 78 81" fill="none" xmlns="http://www.w3.org/2000/svg">
<path fill-rule="evenodd" clip-rule="evenodd" d="M38.2295 22.9639C40.2618 21.8523 42.7124 21.818 44.775 22.8724L58.0754 29.6718L56.9404 31.8241L41.5174 23.9396L35.7462 27.0964L57.5235 38.6989L61.526 36.6789L62.6496 38.837L58.7395 40.8104V48.6016C58.7395 49.3513 58.3202 50.038 57.6533 50.3806L53.8791 52.3193C52.5482 53.003 50.9653 52.0366 50.9653 50.5403V45.373L42.7293 49.8066V69.961L65.436 58.1334V38.2505H67.8991V58.3807C67.8991 59.1263 67.4844 59.81 66.8231 60.1545L42.4542 72.8478C41.8279 73.174 41.076 73.1458 40.476 72.7736L16.6578 57.9976C16.0698 57.6328 15.7121 56.99 15.7121 56.298V51.8158H18.1752V56.0726L40.2662 69.7771V49.7971L31.5808 44.9914L32.7875 42.8773L41.5059 47.7012L49.604 43.3419L33.4741 34.8814L31.8043 26.4784L38.2295 22.9639ZM56.2764 43.7933C56.2764 41.946 55.2578 40.2492 53.6274 39.3806L34.8947 29.4001L35.6664 33.2835L50.7509 41.1957C52.3971 42.0592 53.4284 43.7647 53.4284 45.6236V49.8155L55.1902 48.9105C55.8571 48.568 56.2764 47.8812 56.2764 47.1315V43.7933Z" fill="black"/>
<path fill-rule="evenodd" clip-rule="evenodd" d="M68.6605 31.9639L68.6782 31.9346C70.3888 29.102 72.1514 25.5365 73.4801 22.202C74.8527 18.7576 75.6089 15.9322 75.6089 14.4396C75.6089 8.04533 70.5242 2.86176 64.2517 2.86176C57.9793 2.86176 52.8945 8.04533 52.8945 14.4396C52.8945 16.0269 53.5922 18.8218 54.8525 22.1193C56.0801 25.3311 57.7208 28.711 59.3529 31.3656L59.3759 31.4031L64.177 39.8804L68.6605 31.9639ZM64.177 44.7552L57.3269 32.66C53.8854 27.0623 50.5035 18.5825 50.5035 14.4396C50.5035 6.69917 56.6588 0.424316 64.2517 0.424316C71.8447 0.424316 77.9999 6.69917 77.9999 14.4396C77.9999 18.4644 74.2829 27.3032 70.7143 33.2125L64.177 44.7552Z" fill="black"/>
<path fill-rule="evenodd" clip-rule="evenodd" d="M64.5324 20.3596C68.1463 20.3596 71.076 17.3384 71.076 13.6115C71.076 9.88467 68.1463 6.86345 64.5324 6.86345C60.9184 6.86345 57.9888 9.88467 57.9888 13.6115C57.9888 17.3384 60.9184 20.3596 64.5324 20.3596ZM64.5324 22.8705C69.491 22.8705 73.5108 18.7251 73.5108 13.6115C73.5108 8.49793 69.491 4.35254 64.5324 4.35254C59.5737 4.35254 55.554 8.49793 55.554 13.6115C55.554 18.7251 59.5737 22.8705 64.5324 22.8705Z" fill="black"/>
<path fill-rule="evenodd" clip-rule="evenodd" d="M16.1399 61.4396L10.0271 60.183L7.27539 73.5686C6.93771 75.2112 7.99556 76.8166 9.63818 77.1543L9.80251 77.188C11.4451 77.5257 13.0505 76.4679 13.3882 74.8252L16.1399 61.4396ZM8.1369 57.3145L4.89601 73.0795C4.28818 76.0362 6.19233 78.9258 9.14904 79.5336L9.31337 79.5674C12.2701 80.1752 15.1597 78.2711 15.7675 75.3144L19.0084 59.5494L8.1369 57.3145Z" fill="black"/>
<path fill-rule="evenodd" clip-rule="evenodd" d="M15.9234 52.931L14.6252 59.1557L12.2473 58.6597L13.5454 52.4351L15.9234 52.931Z" fill="black"/>
<path fill-rule="evenodd" clip-rule="evenodd" d="M18.0667 50.7096C26.7031 50.7096 33.7042 43.7084 33.7042 35.0721C33.7042 26.4357 26.7031 19.4345 18.0667 19.4345C9.4303 19.4345 2.42913 26.4357 2.42913 35.0721C2.42913 43.7084 9.4303 50.7096 18.0667 50.7096ZM18.0667 53.1387C28.0446 53.1387 36.1334 45.05 36.1334 35.0721C36.1334 25.0941 28.0446 17.0054 18.0667 17.0054C8.08873 17.0054 0 25.0941 0 35.0721C0 45.05 8.08873 53.1387 18.0667 53.1387Z" fill="black"/>
</svg>
