<svg width="68" height="68" viewBox="0 0 68 68" fill="none" xmlns="http://www.w3.org/2000/svg">
<path fill-rule="evenodd" clip-rule="evenodd" d="M32.2426 0.0456206C24.9299 0.426054 17.9657 3.16074 12.3093 7.87292C9.65727 10.0822 7.45572 12.5509 5.54293 15.4602C-0.682725 24.9293 -1.73541 36.9405 2.74689 47.3633C5.95174 54.8155 11.8174 60.978 19.1036 64.5479C23.0806 66.4963 27.1188 67.5859 31.6636 67.9367C33.2261 68.0573 35.9921 68 37.6716 67.8123C45.3933 66.9491 52.4737 63.5441 57.9857 58.043C62.4934 53.5443 65.6416 47.9238 67.0922 41.7853C68.5506 35.6136 68.2475 29.1888 66.2138 23.1691C64.0221 16.682 59.8662 10.9553 54.3352 6.80105C47.9721 2.02171 40.1622 -0.366331 32.2426 0.0456206ZM36.538 7.67692C39.2395 7.99055 41.5581 8.58336 43.997 9.58399C44.8394 9.92964 46.7419 10.8718 47.5337 11.3354C48.097 11.6652 49.8689 12.8068 49.8689 12.8399C49.8689 12.8469 41.5358 21.1868 31.3509 31.373L12.833 49.8934L12.2664 49.0365C9.90684 45.4674 8.37306 41.5346 7.81638 37.6263C7.60681 36.1547 7.58645 35.8297 7.58677 33.9626C7.58708 32.0896 7.62481 31.5123 7.84164 30.0626C8.66303 24.5703 11.2983 19.363 15.2719 15.3804C18.2703 12.3752 21.7822 10.1964 25.7464 8.88198C27.8375 8.18859 29.9033 7.78662 32.3438 7.59819C32.9344 7.55257 35.9557 7.6093 36.538 7.67692ZM55.7359 18.9861C56.7423 20.5053 57.7341 22.3625 58.4181 24.0085C59.2357 25.9756 59.8884 28.3377 60.1815 30.3896C60.387 31.8279 60.4112 32.2222 60.4094 34.0987C60.4075 36.0096 60.3745 36.4848 60.1351 38.044C59.2793 43.62 56.6284 48.7798 52.5604 52.7873C51.4602 53.8713 50.9019 54.3554 49.806 55.176C45.9523 58.0618 41.5082 59.8043 36.6514 60.334C35.7534 60.4319 33.2988 60.473 32.3438 60.406C28.5917 60.1431 24.9085 59.0637 21.4367 57.2098C20.433 56.6738 19.8901 56.3496 18.9045 55.6977L18.116 55.1761L36.6337 36.6559C46.8184 26.4699 55.1561 18.1358 55.162 18.1358C55.1679 18.1358 55.4261 18.5184 55.7359 18.9861Z" fill="#FC3648"/>
</svg>
