<svg width="58" height="52" viewBox="0 0 58 52" fill="none" xmlns="http://www.w3.org/2000/svg">
<path d="M50.0065 13.98C49.8704 13.9319 49.4492 13.7888 49.0743 13.6643C45.144 12.3748 41.3739 11.7863 38.2055 11.9675C34.8846 12.1576 32.1654 13.2124 30.2385 15.0594C29.3376 15.9256 28.6389 16.8884 28.0206 18.1178C27.7753 18.6123 27.2379 20.0199 27.0942 20.5614C26.9588 21.0586 26.8037 21.7476 26.7147 22.2317C26.5864 22.9409 26.4068 24.4441 26.4664 24.3031C27.4436 22.0732 28.2766 20.5842 29.2687 19.2919C31.1102 16.8974 33.3589 15.347 36.4836 14.3243C40.1376 13.1267 44.7513 13.0163 49.353 14.0134C49.9448 14.1423 50.236 14.2144 51.2042 14.4716C51.3556 14.5131 51.2676 14.4716 50.8305 14.2968C50.5152 14.1739 50.1453 14.0292 50.0065 13.98Z" fill="#14A500"/>
<path d="M50.8245 14.4307C48.9656 13.9916 46.5997 13.7111 44.5612 13.6818C40.5704 13.6293 37.119 14.3914 34.1638 15.973C31.8697 17.2011 30.1455 18.8819 28.7078 21.2889C28.1375 22.2397 27.848 22.837 27.1849 24.4161C26.8741 25.1538 26.5938 25.7991 26.5649 25.8477C26.5359 25.8963 26.4169 26.0991 26.3027 26.2974C25.4986 27.6902 24.0127 29.647 22.2356 31.6585C21.6384 32.3355 20.7583 33.2924 20.7163 33.3104C20.701 33.317 20.69 33.0432 20.6943 32.6995C20.7252 30.2528 20.902 28.3683 21.2378 26.9182C21.3077 26.6166 21.3787 26.4073 21.5382 26.0084C22.6454 23.2791 22.9046 21.1487 22.3913 19.0327C22.1562 18.0672 21.6676 16.8958 21.0932 15.9152C20.8664 15.5234 20.3047 14.7094 20.0008 14.3281C18.9188 12.9606 17.4308 11.6019 15.8402 10.5159C15.2763 10.1352 14.7708 9.82216 14.5566 9.72383L14.4113 9.65938L14.2528 9.86539C13.1455 11.3271 12.4043 12.8084 12.0815 14.21C11.376 17.2742 12.5735 20.2469 15.5576 22.8249C16.8314 23.9268 18.1527 24.791 20.0465 25.7606C20.1886 25.8332 20.2312 25.8693 20.229 25.9064C20.2236 25.9359 20.192 26.3954 20.156 26.9293C19.91 30.5955 19.5033 33.5701 19.0779 34.8323L18.9796 35.1257L18.4851 35.6093C18.2142 35.8749 17.87 36.2126 17.7208 36.3558L17.4471 36.6203L17.4504 36.7547C17.4603 37.047 17.5226 37.3666 17.6221 37.5933C17.8599 38.1479 18.3506 38.4582 19.0565 38.4996C19.351 38.516 19.7761 38.4831 19.9498 38.429C20.0465 38.4011 20.0476 38.3984 20.0738 38.2378C20.0891 38.152 20.159 37.9137 20.2306 37.711C20.8893 35.8418 23.7485 31.8135 28.0719 26.6594C28.4106 26.2562 28.5199 26.1414 28.5702 26.1425C28.6057 26.1408 28.8871 26.2217 29.1974 26.3172C31.0743 26.8934 33.3151 27.3521 35.2034 27.5431C40.5406 28.0801 44.6929 26.9676 47.4524 24.2589C48.3287 23.3988 49.0241 22.4441 49.6736 21.2081C49.9276 20.7235 50.506 19.2531 50.6759 18.6619C50.9801 17.592 51.1826 16.6178 51.3256 15.5152C51.4457 14.5967 51.4457 14.6125 51.3687 14.5754C51.3315 14.5574 51.0884 14.4918 50.8245 14.4307Z" fill="#14A500"/>
<path d="M14.6144 9.68992C14.639 9.71559 14.7822 9.80136 14.933 9.88384C16.4171 10.6737 18.0689 11.9078 19.34 13.167C21.1252 14.9393 22.3975 17.099 22.8671 19.15C23.2946 21.0131 23.0927 23.0397 22.2401 25.4335L22.0544 25.9613L22.1992 25.7816C22.2795 25.6837 22.4505 25.4542 22.5816 25.269C23.8211 23.5401 24.4629 21.8637 24.5179 20.2125C24.5739 18.5269 23.9508 16.8043 22.7251 15.2494C21.513 13.7159 19.6655 12.242 17.3755 10.9872C16.7542 10.6469 16.0903 10.3181 15.5504 10.0832C15.2914 9.97012 14.9625 9.82592 14.8237 9.76092C14.6702 9.69319 14.5871 9.66315 14.6144 9.68992Z" fill="#14A500"/>
</svg>
