<svg width="16" height="32" viewBox="0 0 16 32" fill="none" xmlns="http://www.w3.org/2000/svg">
<path d="M0.336043 16.8781L13.9777 31.6381C14.4247 32.1214 15.1483 32.1206 15.5945 31.6356C16.0404 31.1507 16.0392 30.3651 15.5922 29.8815L2.76252 15.9999L15.5927 2.1185C16.0396 1.63475 16.0408 0.849688 15.595 0.364689C15.3713 0.121565 15.0782 1.82669e-06 14.7852 1.7989e-06C14.4929 1.77117e-06 14.201 0.120752 13.9778 0.362188L0.336043 15.1218C0.120775 15.3542 -2.25261e-05 15.6704 -2.25526e-05 15.9999C-2.25792e-05 16.3294 0.121121 16.6453 0.336043 16.8781Z" fill="black"/>
</svg>
